<svg width="81" height="42" viewBox="0 0 81 42" fill="none" xmlns="http://www.w3.org/2000/svg">
<path d="M3.71429 23.3345C5.08533 22.4929 6.36373 21.7035 7.64719 20.9223C10.2899 19.3108 12.7844 17.4971 15.3311 15.7438C16.7594 14.7652 18.1355 13.7165 19.5419 12.7118C20.2746 12.1882 21.0477 11.7331 21.9437 11.5178C23.3703 11.1819 24.6235 11.6076 25.7873 12.3855C26.5638 12.9042 27.2291 13.5599 27.9871 14.103C28.3239 14.3493 28.6608 14.6086 29.0061 14.8582C29.9409 15.5383 30.9835 15.6215 32.08 15.3573C33.6919 14.9658 35.0663 14.1161 36.3919 13.1962C38.9183 11.4445 41.369 9.58673 43.9107 7.8497C45.1065 7.03419 46.1727 6.03601 47.3181 5.14711C48.0086 4.61213 48.7565 4.15219 49.6609 4.03149C50.909 3.86839 51.9567 4.3577 52.8881 5.06229C55.583 7.10106 58.3891 8.97673 61.0807 11.022C65.123 14.0834 69.2951 16.9736 73.4234 19.9208C74.7237 20.8489 76.0324 21.7655 77.3377 22.6936C77.3883 22.7294 77.4338 22.7686 77.4826 22.8045C77.6241 22.9072 77.7622 23.0181 77.6982 23.2139C77.6672 23.3049 77.6051 23.3829 77.5221 23.4351C77.4391 23.4873 77.3402 23.5105 77.2417 23.5009C76.5427 23.5156 75.8438 23.5221 75.1464 23.5433C71.5706 23.6493 67.9914 23.7325 64.4156 23.6363C61.4175 23.5564 58.4228 23.3884 55.4887 22.7213C53.8886 22.3592 52.3677 21.8079 51.0876 20.7804C49.6289 19.6109 49.4251 18.4806 50.338 16.8562C50.8433 15.9673 51.5087 15.1909 52.1066 14.3672C52.5294 13.7833 52.9386 13.188 53.1307 12.4916C53.5383 11.0122 52.9976 9.68948 51.6434 8.87561C50.8349 8.3863 49.9692 8.09598 48.9906 8.26071C48.7738 8.29922 48.5678 8.38146 48.3859 8.5021C45.7247 10.2136 43.0646 11.9256 40.4056 13.6382C36.0381 16.4598 31.6976 19.3223 27.1752 21.9123C26.0484 22.5566 24.9385 23.2318 23.7257 23.7195C23.3834 23.8803 23.0123 23.9756 22.6326 24C22.252 24 22.0919 23.8483 22.1054 23.483C22.1223 23.0687 22.3126 22.7033 22.4979 22.3413C23.0739 21.2256 23.6179 20.1002 23.8352 18.8574C24.0171 17.8168 23.9582 16.8056 23.4984 15.8286C23.0756 14.9169 22.3918 14.607 21.4115 14.912C20.8443 15.0917 20.3023 15.3387 19.7979 15.6476C16.4293 17.6798 13.0168 19.6289 9.52352 21.4556C8.17644 22.1851 6.76087 22.7891 5.29587 23.2595C4.7822 23.4051 4.24021 23.4308 3.71429 23.3345Z" fill="white"/>
<path d="M3.71429 35.6796L5.65087 34.69C6.05242 35.4063 6.68947 36.0836 7.53493 36.0836C8.21265 36.0836 8.5515 35.7577 8.5515 35.2502C8.5515 34.6136 7.85007 34.3267 6.9792 33.9753C5.69323 33.4542 4.0684 32.8685 4.0684 30.8247C4.0684 29.1272 5.44586 28 7.34347 28C9.03777 28 10.1357 28.9116 10.7609 30.2068L8.89714 31.2355C8.48204 30.4156 7.97375 29.9725 7.28587 29.9725C6.71489 29.9725 6.42855 30.2849 6.42855 30.7025C6.42855 31.2881 7.05205 31.5869 7.84498 31.9383C9.15637 32.4985 10.9117 33.0841 10.9117 35.1415C10.9117 36.6387 9.79342 37.9917 7.53323 37.9917C5.52041 37.9968 4.3649 37.0207 3.71429 35.6796Z" fill="#ED202C"/>
<path d="M11.6284 33.0024C11.6284 29.4478 13.4921 28.0032 15.6168 28.0032C17.7414 28.0032 19.5933 29.4376 19.5933 33.0024C19.5933 36.5672 17.7296 37.9999 15.6168 37.9999C13.504 37.9999 11.6284 36.5519 11.6284 33.0024ZM17.1637 33.0024C17.1637 31.0621 16.6689 30.0589 15.6168 30.0589C14.5646 30.0589 14.058 31.0621 14.058 33.0024C14.058 34.9427 14.5663 36.0087 15.6168 36.0087C16.6672 36.0087 17.1637 34.9376 17.1637 33.0024Z" fill="#ED202C"/>
<path d="M20.6318 28.1816H23.0496V35.8494H26.5568V37.8151H20.6267L20.6318 28.1816Z" fill="#ED202C"/>
<path d="M29.066 37.8151H26.8211L29.6268 28.1392H31.9785L34.786 37.8151H32.3529L31.9497 36.1872H29.4811L29.066 37.8151ZM31.3262 33.5967C31.0855 32.7888 30.8948 31.9668 30.7552 31.1353H30.7281C30.5858 32.0469 30.3774 32.6325 30.13 33.595L29.9487 34.325H31.4956L31.3262 33.5967Z" fill="#ED202C"/>
<path d="M35.1468 35.6796L37.0817 34.69C37.4849 35.4063 38.122 36.0836 38.9658 36.0836C39.6435 36.0836 39.9823 35.7577 39.9823 35.2502C39.9823 34.6136 39.2809 34.3267 38.41 33.9753C37.1224 33.4542 35.4992 32.8685 35.4992 30.8247C35.4992 29.1272 36.8767 28 38.7726 28C40.4754 28 41.5665 28.9116 42.19 30.2068L40.3263 31.2355C39.9095 30.4156 39.4029 29.9725 38.715 29.9725C38.1423 29.9725 37.8577 30.2849 37.8577 30.7025C37.8577 31.2881 38.4812 31.5869 39.2741 31.9383C40.5855 32.4985 42.3391 33.0841 42.3391 35.1415C42.3391 36.6387 41.2226 37.9917 38.9607 37.9917C36.9529 37.9968 35.8008 37.0207 35.1468 35.6796Z" fill="#ED202C"/>
<path d="M46.5037 28.1816H52.1812V30.2187H48.9197V32.1844H51.2324V34.0857H48.9197V37.8202H46.5037V28.1816Z" fill="#ED202C"/>
<path d="M54.6245 37.8151H52.3762L55.1836 28.1392H57.5353L60.341 37.8151H57.9114L57.5082 36.1872H55.0396L54.6245 37.8151ZM56.8847 33.5967C56.6456 32.7884 56.4549 31.9664 56.3137 31.1353H56.2883C56.1443 32.0469 55.9376 32.6325 55.6902 33.595L55.5072 34.325H57.0541L56.8847 33.5967Z" fill="#ED202C"/>
<path d="M61.095 28.1816H64.226C66.332 28.1816 67.657 29.0304 67.657 31.3577C67.657 32.5562 67.125 33.4796 66.2016 33.904L67.9552 37.8083H65.4612L63.9804 34.5304H63.4467V37.8117H61.095V28.1816ZM64.1616 32.7123C64.98 32.7123 65.3578 32.361 65.3578 31.4103C65.3578 30.4597 64.98 30.1864 64.1616 30.1864H63.4467V32.7123H64.1616Z" fill="#ED202C"/>
<path d="M68.9565 28.1816H72.0486L73.3616 34.4625H73.3752L74.5697 28.1816H77.7143V37.8151H75.427V31.6056H75.4016C75.3171 32.3903 75.1824 33.1688 74.9983 33.9363L74.1156 37.8151H72.3485L71.4911 33.9482C71.4251 33.6494 71.1133 32.2506 71.0743 31.5411H71.0422V37.8219H68.9565V28.1816Z" fill="#ED202C"/>
</svg>
