<svg width="120" height="120" viewBox="0 0 120 120" fill="none" xmlns="http://www.w3.org/2000/svg">
<g id="Cart" clip-path="url(#clip0_3371_57077)">
<g id="Cart_2">
<g id="XMLID_10_">
<g id="XMLID_12_">
<g id="XMLID_96_">
<path id="XMLID_97_" d="M31.0516 66.8892C29.5626 66.8892 24.798 66.2002 22.801 57.5223C21.1194 50.1665 17.9838 22.4567 16.7051 10.8924C16.5474 9.40261 17.0204 7.95008 18.0188 6.90724C19.0173 5.8644 20.4012 5.38022 21.785 5.56644L114.871 18.9372C117.271 19.291 118.988 21.5629 118.76 24.1327L116.308 52.9598C116.045 56.107 114.731 58.9748 112.611 61.0791C110.737 62.9227 109.003 63.8538 107.426 63.8538C103.993 63.8538 33.3113 66.7775 31.3844 66.852C31.3669 66.8706 31.2267 66.8892 31.0516 66.8892ZM21.207 7.78247C20.5763 7.78247 19.9808 8.04318 19.5253 8.50874C18.9998 9.0674 18.737 9.83092 18.8246 10.6317C20.0859 22.1588 23.2214 49.7568 24.868 56.9822C26.7073 65.0456 31.0516 64.6359 31.2268 64.6173C31.2443 64.6173 31.2793 64.6173 31.3144 64.6173C34.2747 64.487 103.958 61.6192 107.461 61.6192C108.46 61.6192 109.756 60.8557 111.21 59.4404C112.944 57.7271 114.013 55.3621 114.24 52.7736L116.693 23.9465C116.815 22.5871 115.905 21.3767 114.626 21.1904L21.5398 7.81972C21.4172 7.8011 21.3121 7.78247 21.207 7.78247Z" fill="#DADADA"/>
</g>
<g id="XMLID_94_">
<path id="XMLID_95_" d="M34.888 66.875C34.3625 66.875 33.907 66.4653 33.837 65.888L27.0228 8.45726C26.9527 7.84273 27.3556 7.28407 27.9337 7.20958C28.5117 7.13509 29.0373 7.56341 29.1073 8.17794L35.9215 65.6087C35.9916 66.2232 35.5887 66.7819 35.0106 66.8564C34.9756 66.875 34.923 66.875 34.888 66.875Z" fill="#DADADA"/>
</g>
<g id="XMLID_92_">
<path id="XMLID_93_" d="M45.8536 65.7962C45.3281 65.7962 44.8726 65.3865 44.8025 64.8092L38.1285 9.74347C38.0584 9.12894 38.4613 8.57027 39.0394 8.47716C39.6175 8.40267 40.143 8.83097 40.2306 9.44551L46.9046 64.5113C46.9747 65.1258 46.5718 65.6844 45.9937 65.7776C45.9412 65.7962 45.9061 65.7962 45.8536 65.7962Z" fill="#DADADA"/>
</g>
<g id="XMLID_90_">
<path id="XMLID_91_" d="M56.9593 65.367C56.4163 65.367 55.9608 64.9387 55.9083 64.3614L50.7933 11.1393C50.7407 10.5247 51.1611 9.96605 51.7392 9.91018C52.3173 9.83569 52.8428 10.3012 52.8953 10.9158L58.0103 64.1379C58.0629 64.7525 57.6425 65.3111 57.0644 65.367C57.0294 65.367 56.9943 65.367 56.9593 65.367Z" fill="#DADADA"/>
</g>
<g id="XMLID_88_">
<path id="XMLID_89_" d="M68.2055 65.3685C67.68 65.3685 67.2245 64.9402 67.1544 64.3815L61.4614 12.705C61.3913 12.0905 61.8117 11.5318 62.3898 11.4573C62.9678 11.3828 63.4934 11.8298 63.5634 12.4443L69.2565 64.1208C69.3266 64.7353 68.9062 65.294 68.3281 65.3685C68.2931 65.3685 68.2405 65.3685 68.2055 65.3685Z" fill="#DADADA"/>
</g>
<g id="XMLID_86_">
<path id="XMLID_87_" d="M79.0836 64.9378C78.558 64.9378 78.1026 64.5281 78.0325 63.9508L72.1292 14.2483C72.0592 13.6337 72.4621 13.0751 73.0401 13.0006C73.6182 12.9261 74.1437 13.3544 74.2138 13.9689L80.1171 63.6715C80.1871 64.286 79.7842 64.8447 79.2062 64.9192C79.1711 64.9378 79.1186 64.9378 79.0836 64.9378Z" fill="#DADADA"/>
</g>
<g id="XMLID_84_">
<path id="XMLID_85_" d="M90.4172 64.4898C89.8917 64.4898 89.4362 64.0801 89.3662 63.5215L83.4979 16.4446C83.4278 15.8301 83.8307 15.2714 84.4088 15.1783C84.9869 15.1038 85.5124 15.5322 85.6 16.1467L91.4682 63.2235C91.5383 63.8381 91.1354 64.3967 90.5573 64.4898C90.5048 64.4898 90.4697 64.4898 90.4172 64.4898Z" fill="#DADADA"/>
</g>
<g id="XMLID_82_">
<path id="XMLID_83_" d="M101.19 64.077C100.665 64.077 100.209 63.6673 100.139 63.0901L94.8314 18.3596C94.7613 17.7451 95.1642 17.1864 95.7423 17.1119C96.3204 17.0374 96.8459 17.4658 96.9159 18.0803L102.224 62.8107C102.294 63.4252 101.891 63.9839 101.313 64.0584C101.278 64.077 101.243 64.077 101.19 64.077Z" fill="#DADADA"/>
</g>
<g id="XMLID_79_">
<path id="XMLID_81_" d="M111.928 61.3986C111.403 61.3986 110.947 60.9889 110.877 60.4116L106.025 19.1077C105.955 18.4931 106.358 17.9345 106.936 17.86C107.514 17.7855 108.039 18.2138 108.11 18.8283L112.962 60.1323C113.032 60.7468 112.629 61.3055 112.051 61.38C112.016 61.3986 111.981 61.3986 111.928 61.3986Z" fill="#DADADA"/>
</g>
<g id="XMLID_77_">
<path id="XMLID_78_" d="M116.045 35.366C116.01 35.366 115.975 35.366 115.957 35.366L19.3151 26.2412C18.7371 26.1853 18.2991 25.6452 18.3517 25.0307C18.4042 24.4162 18.9123 23.9506 19.4903 24.0065L116.132 33.1314C116.71 33.1872 117.148 33.7273 117.096 34.3418C117.043 34.9191 116.588 35.366 116.045 35.366Z" fill="#DADADA"/>
</g>
<g id="XMLID_74_">
<path id="XMLID_75_" d="M116.045 48.6418C116.01 48.6418 115.975 48.6418 115.957 48.6418L20.9442 39.6845C20.3662 39.6287 19.9282 39.0886 19.9808 38.4741C20.0333 37.8596 20.5413 37.394 21.1194 37.4499L116.132 46.4071C116.71 46.463 117.148 47.003 117.096 47.6176C117.043 48.2135 116.588 48.6418 116.045 48.6418Z" fill="#DADADA"/>
</g>
<g id="XMLID_72_">
<path id="XMLID_73_" d="M109.511 63.283C109.476 63.283 109.441 63.283 109.406 63.283L22.9586 54.214C22.3806 54.1581 21.9602 53.5995 22.0127 52.9849C22.0653 52.3704 22.5908 51.9235 23.1688 51.9793L109.616 61.0483C110.194 61.1042 110.614 61.6628 110.562 62.2774C110.509 62.8547 110.054 63.283 109.511 63.283Z" fill="#DADADA"/>
</g>
<g id="XMLID_48_">
<path id="XMLID_63_" d="M44.6624 102.201C32.5931 102.201 22.8886 102.164 20.9792 102.089C19.0348 101.996 17.651 101.289 16.8627 99.9851C15.4964 97.6946 16.635 94.6406 16.7751 94.2868L28.6343 66.0369C28.8795 65.4783 29.4926 65.2176 30.0356 65.4597C30.5611 65.7204 30.8064 66.3721 30.5787 66.9494L18.7195 95.1806C18.4918 95.7952 17.9838 97.676 18.6495 98.7747C19.0349 99.4265 19.8582 99.7803 21.0668 99.8362C26.6198 100.078 101.418 99.8362 102.171 99.8362C102.749 99.8362 103.222 100.339 103.222 100.954C103.222 101.568 102.749 102.071 102.171 102.089C100.157 102.089 67.9777 102.201 44.6624 102.201Z" fill="#DADADA"/>
</g>
<g id="XMLID_46_">
<path id="XMLID_47_" d="M39.2496 111.324C39.2496 116.054 35.641 119.89 31.1917 119.89C26.7423 119.89 23.1338 116.054 23.1338 111.324C23.1338 106.594 26.7423 102.758 31.1917 102.758C35.641 102.758 39.2496 106.594 39.2496 111.324Z" fill="#22313F"/>
</g>
<g id="XMLID_43_">
<path id="XMLID_44_" d="M98.4753 111.435C98.4753 116.165 94.8667 120.002 90.4174 120.002C85.968 120.002 82.3595 116.165 82.3595 111.435C82.3595 106.705 85.968 102.869 90.4174 102.869C94.8667 102.869 98.4753 106.705 98.4753 111.435Z" fill="#22313F"/>
</g>
<g id="XMLID_41_">
<path id="XMLID_42_" d="M23.4667 8.08568C23.3967 8.08568 23.3266 8.08567 23.2565 8.06705L5.19636 4.30538C4.61829 4.19365 4.25044 3.59774 4.35554 2.98321C4.46064 2.36868 5.02118 1.9776 5.59924 2.08934L23.6594 5.85102C24.2375 5.96275 24.6054 6.55866 24.5003 7.17319C24.3951 7.71324 23.9572 8.08568 23.4667 8.08568Z" fill="#DADADA"/>
</g>
<g id="XMLID_39_">
<path id="XMLID_40_" d="M9.3129 4.15484C9.3129 6.44537 7.56117 8.30759 5.40656 8.30759C3.25195 8.30759 1.50024 6.44537 1.50024 4.15484C1.50024 1.86431 3.25195 0.00209023 5.40656 0.00209023C7.56117 -0.0165319 9.3129 1.86431 9.3129 4.15484Z" fill="#E6332A"/>
</g>
<path id="XMLID_36_" d="M36.079 111.324C36.079 114.192 33.8894 116.52 31.1917 116.52C28.4941 116.52 26.3044 114.192 26.3044 111.324C26.3044 108.457 28.4941 106.129 31.1917 106.129C33.8894 106.129 36.079 108.457 36.079 111.324Z" fill="white"/>
<path id="XMLID_33_" d="M95.3044 111.438C95.3044 114.306 93.1147 116.633 90.4171 116.633C87.7194 116.633 85.5298 114.306 85.5298 111.438C85.5298 108.57 87.7194 106.242 90.4171 106.242C93.1147 106.242 95.3044 108.57 95.3044 111.438Z" fill="#F9B233"/>
<g id="XMLID_29_">
<path id="XMLID_30_" d="M20.6113 112.681C20.6113 106.462 25.3585 101.434 31.1917 101.434C37.0424 101.434 41.772 106.48 41.772 112.681" fill="#E6332A"/>
</g>
<path id="XMLID_26_" d="M95.3044 111.324C95.3044 114.192 93.1147 116.52 90.4171 116.52C87.7194 116.52 85.5298 114.192 85.5298 111.324C85.5298 108.457 87.7194 106.129 90.4171 106.129C93.1147 106.129 95.3044 108.457 95.3044 111.324Z" fill="white"/>
<g id="XMLID_23_">
<path id="XMLID_25_" d="M79.8368 112.681C79.8368 106.462 84.5839 101.434 90.4171 101.434C96.2679 101.434 100.997 106.48 100.997 112.681" fill="#E6332A"/>
</g>
</g>
</g>
<path id="XMLID_2_" d="M106.829 15.9643L8.20239 1.75391L7.73894 5.38909L106.366 19.5995L106.829 15.9643Z" fill="#E6332A"/>
</g>
</g>
<defs>
<clipPath id="clip0_3371_57077">
<rect width="120" height="120" fill="white"/>
</clipPath>
</defs>
</svg>
