<svg xmlns="http://www.w3.org/2000/svg" width="32" height="32" viewBox="0 0 32 32" fill="none">
    <g clip-path="url(#clip0_7113_9471)">
        <path d="M16 32C24.8366 32 32 24.8366 32 16C32 7.16344 24.8366 0 16 0C7.16344 0 0 7.16344 0 16C0 24.8366 7.16344 32 16 32Z" fill="#1DA750"/>
        <path fill-rule="evenodd" clip-rule="evenodd" d="M11.004 23.8032L5.15226 17.5401C4.35113 16.6827 4.39711 15.3261 5.25456 14.5249C6.11201 13.7238 7.46861 13.7699 8.26974 14.6272L12.7835 19.4582L19.9282 12.7827C19.9924 12.7226 20.0596 12.6676 20.129 12.6169L23.4889 9.47776C24.3463 8.67663 25.7031 8.72274 26.5041 9.58019C27.3052 10.4375 27.2591 11.7942 26.4018 12.5954L16.1399 22.1834L16.1289 22.1717L12.5792 25.4883L11.004 23.8032Z" fill="white"/>
    </g>
    <defs>
        <clipPath id="clip0_7113_9471">
            <rect width="32" height="32" fill="white"/>
        </clipPath>
    </defs>
</svg>