<svg xmlns="http://www.w3.org/2000/svg" width="32" height="32" viewBox="0 0 32 32" fill="none">
    <path d="M29.6667 22.9999L18.8867 4.33327C18.5941 3.82658 18.1733 3.40582 17.6666 3.11329C17.1599 2.82075 16.5851 2.66675 16 2.66675C15.4149 2.66675 14.8401 2.82075 14.3334 3.11329C13.8267 3.40582 13.4059 3.82658 13.1134 4.33327L2.33336 22.9999C2.04069 23.5069 1.88667 24.0819 1.88678 24.6672C1.88689 25.2526 2.04114 25.8276 2.33401 26.3344C2.62687 26.8412 3.04803 27.2619 3.55512 27.5543C4.06221 27.8467 4.63735 28.0004 5.2227 27.9999H26.7774C27.3625 27.9999 27.9373 27.8459 28.444 27.5533C28.9507 27.2608 29.3715 26.84 29.6641 26.3332C29.9566 25.8265 30.1106 25.2517 30.1106 24.6666C30.1106 24.0815 29.9566 23.5067 29.664 22.9999H29.6667Z" fill="#FFC214"/>
    <path d="M16 20.0001C16.3493 20.0017 16.6866 19.8726 16.9456 19.6382C17.2047 19.4039 17.3667 19.0812 17.4 18.7334L18.1867 10.8668C18.2146 10.5884 18.1839 10.3072 18.0964 10.0414C18.0089 9.77566 17.8667 9.53121 17.6788 9.32386C17.4909 9.11652 17.2617 8.9509 17.0058 8.83771C16.7499 8.72452 16.4731 8.66628 16.1933 8.66675H15.8067C15.5272 8.66675 15.2507 8.72533 14.9953 8.83873C14.7398 8.95212 14.5109 9.11781 14.3234 9.3251C14.1359 9.53239 13.9939 9.77668 13.9067 10.0422C13.8194 10.3078 13.7887 10.5886 13.8167 10.8668L14.6033 18.7334C14.6365 19.0806 14.7981 19.4028 15.0565 19.6371C15.3148 19.8714 15.6513 20.0008 16 20.0001Z" fill="url(#paint0_linear_6951_87673)"/>
    <path d="M16 25.3334C17.2887 25.3334 18.3334 24.2887 18.3334 23.0001C18.3334 21.7114 17.2887 20.6667 16 20.6667C14.7114 20.6667 13.6667 21.7114 13.6667 23.0001C13.6667 24.2887 14.7114 25.3334 16 25.3334Z" fill="url(#paint1_linear_6951_87673)"/>
    <defs>
        <linearGradient id="paint0_linear_6951_87673" x1="13.5453" y1="10.3921" x2="18.3667" y2="17.4101" gradientUnits="userSpaceOnUse">
            <stop stop-color="#3E4154"/>
            <stop offset="1" stop-color="#1B2129"/>
        </linearGradient>
        <linearGradient id="paint1_linear_6951_87673" x1="14.5194" y1="21.5194" x2="17.384" y2="24.3841" gradientUnits="userSpaceOnUse">
            <stop stop-color="#3E4154"/>
            <stop offset="1" stop-color="#1B2129"/>
        </linearGradient>
    </defs>
</svg>