<svg xmlns="http://www.w3.org/2000/svg" width="32" height="32" viewBox="0 0 32 32" fill="none">
    <g clip-path="url(#clip0_6951_87652)">
        <path d="M16 31.4665C24.542 31.4665 31.4667 24.5419 31.4667 15.9999C31.4667 7.45787 24.542 0.533203 16 0.533203C7.45799 0.533203 0.533325 7.45787 0.533325 15.9999C0.533325 24.5419 7.45799 31.4665 16 31.4665Z" fill="#D9342B"/>
        <path d="M18.2496 16.0001L22.1819 19.9324C22.3213 20.0723 22.3995 20.2618 22.3995 20.4593C22.3995 20.6568 22.3213 20.8463 22.1819 20.9862L20.9861 22.182C20.8462 22.3214 20.6567 22.3996 20.4592 22.3996C20.2617 22.3996 20.0722 22.3214 19.9323 22.182L16 18.2497L12.0677 22.182C11.9278 22.3214 11.7383 22.3996 11.5408 22.3996C11.3433 22.3996 11.1538 22.3214 11.0139 22.182L9.81814 20.9862C9.67874 20.8463 9.60048 20.6568 9.60048 20.4593C9.60048 20.2618 9.67874 20.0723 9.81814 19.9324L13.7504 16.0001L9.81814 12.0678C9.67874 11.9279 9.60048 11.7384 9.60048 11.5409C9.60048 11.3434 9.67874 11.1539 9.81814 11.014L11.0139 9.81824C11.1538 9.67885 11.3433 9.60059 11.5408 9.60059C11.7383 9.60059 11.9278 9.67885 12.0677 9.81824L16 13.7505L19.9323 9.81824C20.0722 9.67885 20.2617 9.60059 20.4592 9.60059C20.6567 9.60059 20.8462 9.67885 20.9861 9.81824L22.1819 11.014C22.3213 11.1539 22.3995 11.3434 22.3995 11.5409C22.3995 11.7384 22.3213 11.9279 22.1819 12.0678L18.2496 16.0001Z" fill="white"/>
    </g>
    <defs>
        <clipPath id="clip0_6951_87652">
            <rect width="32" height="32" fill="white"/>
        </clipPath>
    </defs>
</svg>