<svg width="120" height="120" viewBox="0 0 120 120" fill="none" xmlns="http://www.w3.org/2000/svg">
<rect width="120" height="120" rx="6" fill="#22313F" fill-opacity="0.05"/>
<g clip-path="url(#clip0_7474_144258)">
<path d="M45.511 39.4744H24.9854V95.0142L38.5243 97.4289L56.3774 95.0142L59.3958 58.7927L56.3774 39.4744L51.9182 36.0245L45.511 39.4744Z" fill="#72BBFF"/>
<path d="M46.7184 79.3181V95.0142L41.3577 97.4289L34.6445 95.0142V79.3181H46.7184Z" fill="#405580"/>
<path d="M88.9774 27.4006V32.2302L81.1293 34.4947L73.2813 32.2302L71.752 29.7724L73.2813 27.4006H88.9774Z" fill="#0094FF"/>
<path d="M95.0143 32.2301V95.0142L88.1081 97.8153L78.1109 95.0142L73.2814 58.7926L70.7217 43.6815L73.2814 32.2301H95.0143Z" fill="#72BBFF"/>
<path d="M78.1109 58.7926V95.0142L67.2445 97.8153L56.3779 95.0142V58.7926H73.2814H78.1109Z" fill="#D5E8FE"/>
<path d="M68.452 24.9858L58.7017 23.333L50.3413 24.9858H45.5117V39.4744H56.3781V58.7925H73.2816C73.2816 57.3958 73.2816 26.1002 73.2816 24.9857L68.452 24.9858Z" fill="#FED843"/>
<path d="M99.8438 95.0143V99.8438H20.1562V95.0143H99.8438Z" fill="#70D840"/>
<path d="M50.3408 20.1562H68.4516V24.9858H50.3408V20.1562Z" fill="#FABE2C"/>
<path d="M31.0228 49.1336C30.3559 49.1336 29.8154 48.5931 29.8154 47.9263V45.5114C29.8154 44.8445 30.3559 44.3041 31.0228 44.3041C31.6896 44.3041 32.2301 44.8445 32.2301 45.5114V47.9263C32.2303 48.593 31.6898 49.1336 31.0228 49.1336Z" fill="#D5E8FE"/>
<path d="M37.4622 49.1336C36.7954 49.1336 36.2549 48.5931 36.2549 47.9263V45.5114C36.2549 44.8445 36.7954 44.3041 37.4622 44.3041C38.1291 44.3041 38.6696 44.8445 38.6696 45.5114V47.9263C38.6696 48.593 38.1291 49.1336 37.4622 49.1336Z" fill="#D5E8FE"/>
<path d="M43.9017 49.1336C43.2348 49.1336 42.6943 48.5931 42.6943 47.9263V45.5114C42.6943 44.8445 43.2348 44.3041 43.9017 44.3041C44.5686 44.3041 45.109 44.8445 45.109 45.5114V47.9263C45.109 48.593 44.5686 49.1336 43.9017 49.1336Z" fill="#D5E8FE"/>
<path d="M50.3411 49.1336C49.6743 49.1336 49.1338 48.5931 49.1338 47.9263V45.5114C49.1338 44.8445 49.6743 44.3041 50.3411 44.3041C51.008 44.3041 51.5485 44.8445 51.5485 45.5114V47.9263C51.5485 48.593 51.008 49.1336 50.3411 49.1336Z" fill="#D5E8FE"/>
<path d="M31.0228 57.5851C30.3559 57.5851 29.8154 57.0447 29.8154 56.3778V53.963C29.8154 53.2961 30.3559 52.7556 31.0228 52.7556C31.6896 52.7556 32.2301 53.2961 32.2301 53.963V56.3778C32.2303 57.0447 31.6898 57.5851 31.0228 57.5851Z" fill="#D5E8FE"/>
<path d="M37.4622 57.5851C36.7954 57.5851 36.2549 57.0447 36.2549 56.3778V53.963C36.2549 53.2961 36.7954 52.7556 37.4622 52.7556C38.1291 52.7556 38.6696 53.2961 38.6696 53.963V56.3778C38.6696 57.0447 38.1291 57.5851 37.4622 57.5851Z" fill="#D5E8FE"/>
<path d="M43.9017 57.5851C43.2348 57.5851 42.6943 57.0447 42.6943 56.3778V53.963C42.6943 53.2961 43.2348 52.7556 43.9017 52.7556C44.5686 52.7556 45.109 53.2961 45.109 53.963V56.3778C45.109 57.0447 44.5686 57.5851 43.9017 57.5851Z" fill="#D5E8FE"/>
<path d="M50.3411 57.5851C49.6743 57.5851 49.1338 57.0447 49.1338 56.3778V53.963C49.1338 53.2961 49.6743 52.7556 50.3411 52.7556C51.008 52.7556 51.5485 53.2961 51.5485 53.963V56.3778C51.5485 57.0447 51.008 57.5851 50.3411 57.5851Z" fill="#D5E8FE"/>
<path d="M31.0228 66.0369C30.3559 66.0369 29.8154 65.4965 29.8154 64.8296V62.4147C29.8154 61.7479 30.3559 61.2074 31.0228 61.2074C31.6896 61.2074 32.2301 61.7479 32.2301 62.4147V64.8296C32.2303 65.4965 31.6898 66.0369 31.0228 66.0369Z" fill="#D5E8FE"/>
<path d="M37.4622 66.0369C36.7954 66.0369 36.2549 65.4965 36.2549 64.8296V62.4147C36.2549 61.7479 36.7954 61.2074 37.4622 61.2074C38.1291 61.2074 38.6696 61.7479 38.6696 62.4147V64.8296C38.6696 65.4965 38.1291 66.0369 37.4622 66.0369Z" fill="#D5E8FE"/>
<path d="M43.9017 66.0369C43.2348 66.0369 42.6943 65.4965 42.6943 64.8296V62.4147C42.6943 61.7479 43.2348 61.2074 43.9017 61.2074C44.5686 61.2074 45.109 61.7479 45.109 62.4147V64.8296C45.109 65.4965 44.5686 66.0369 43.9017 66.0369Z" fill="#D5E8FE"/>
<path d="M50.3411 66.0369C49.6743 66.0369 49.1338 65.4965 49.1338 64.8296V62.4147C49.1338 61.7479 49.6743 61.2074 50.3411 61.2074C51.008 61.2074 51.5485 61.7479 51.5485 62.4147V64.8296C51.5485 65.4965 51.008 66.0369 50.3411 66.0369Z" fill="#D5E8FE"/>
<path d="M31.0228 74.4886C30.3559 74.4886 29.8154 73.9481 29.8154 73.2812V70.8664C29.8154 70.1995 30.3559 69.6591 31.0228 69.6591C31.6896 69.6591 32.2301 70.1995 32.2301 70.8664V73.2812C32.2303 73.9481 31.6898 74.4886 31.0228 74.4886Z" fill="#D5E8FE"/>
<path d="M37.4622 74.4886C36.7954 74.4886 36.2549 73.9481 36.2549 73.2812V70.8664C36.2549 70.1995 36.7954 69.6591 37.4622 69.6591C38.1291 69.6591 38.6696 70.1995 38.6696 70.8664V73.2812C38.6696 73.9481 38.1291 74.4886 37.4622 74.4886Z" fill="#D5E8FE"/>
<path d="M43.9017 74.4886C43.2348 74.4886 42.6943 73.9481 42.6943 73.2812V70.8664C42.6943 70.1995 43.2348 69.6591 43.9017 69.6591C44.5686 69.6591 45.109 70.1995 45.109 70.8664V73.2812C45.109 73.9481 44.5686 74.4886 43.9017 74.4886Z" fill="#D5E8FE"/>
<path d="M50.3411 74.4886C49.6743 74.4886 49.1338 73.9481 49.1338 73.2812V70.8664C49.1338 70.1995 49.6743 69.6591 50.3411 69.6591C51.008 69.6591 51.5485 70.1995 51.5485 70.8664V73.2812C51.5485 73.9481 51.008 74.4886 50.3411 74.4886Z" fill="#D5E8FE"/>
<path d="M68.4515 55.1704C67.7846 55.1704 67.2441 54.6299 67.2441 53.9631V29.8153C67.2441 29.1484 67.7846 28.6079 68.4515 28.6079C69.1184 28.6079 69.6588 29.1484 69.6588 29.8153V53.9629C69.6588 54.6299 69.1184 55.1704 68.4515 55.1704Z" fill="#FABE2C"/>
<path d="M62.4144 55.1704C61.7475 55.1704 61.207 54.6299 61.207 53.9631V29.8153C61.207 29.1484 61.7475 28.6079 62.4144 28.6079C63.0812 28.6079 63.6217 29.1484 63.6217 29.8153V53.9629C63.6217 54.6299 63.0812 55.1704 62.4144 55.1704Z" fill="#FABE2C"/>
<path d="M56.3782 35.8523C55.7114 35.8523 55.1709 35.3118 55.1709 34.6449V29.8153C55.1709 29.1484 55.7114 28.6079 56.3782 28.6079C57.0451 28.6079 57.5856 29.1484 57.5856 29.8153V34.6448C57.5856 35.3117 57.0451 35.8523 56.3782 35.8523Z" fill="#FABE2C"/>
<path d="M50.3411 35.8523C49.6743 35.8523 49.1338 35.3118 49.1338 34.6449V29.8153C49.1338 29.1484 49.6743 28.6079 50.3411 28.6079C51.008 28.6079 51.5485 29.1484 51.5485 29.8153V34.6448C51.5485 35.3117 51.008 35.8523 50.3411 35.8523Z" fill="#FABE2C"/>
<path d="M73.2812 66.0369H61.2073C60.5405 66.0369 60 65.4964 60 64.8295C60 64.1627 60.5405 63.6222 61.2073 63.6222H73.2812C73.9481 63.6222 74.4886 64.1627 74.4886 64.8295C74.4886 65.4964 73.9481 66.0369 73.2812 66.0369Z" fill="#A5D3F9"/>
<path d="M73.2812 72.0739H61.2073C60.5405 72.0739 60 71.5334 60 70.8665C60 70.1996 60.5405 69.6592 61.2073 69.6592H73.2812C73.9481 69.6592 74.4886 70.1996 74.4886 70.8665C74.4886 71.5334 73.9481 72.0739 73.2812 72.0739Z" fill="#A5D3F9"/>
<path d="M73.2812 78.1107H61.2073C60.5405 78.1107 60 77.5703 60 76.9034C60 76.2365 60.5405 75.696 61.2073 75.696H73.2812C73.9481 75.696 74.4886 76.2365 74.4886 76.9034C74.4886 77.5703 73.9481 78.1107 73.2812 78.1107Z" fill="#A5D3F9"/>
<path d="M73.2812 84.1477H61.2073C60.5405 84.1477 60 83.6072 60 82.9404C60 82.2735 60.5405 81.733 61.2073 81.733H73.2812C73.9481 81.733 74.4886 82.2735 74.4886 82.9404C74.4886 83.6072 73.9481 84.1477 73.2812 84.1477Z" fill="#A5D3F9"/>
<path d="M73.2812 90.1847H61.2073C60.5405 90.1847 60 89.6442 60 88.9774C60 88.3105 60.5405 87.77 61.2073 87.77H73.2812C73.9481 87.77 74.4886 88.3105 74.4886 88.9774C74.4886 89.6442 73.9481 90.1847 73.2812 90.1847Z" fill="#A5D3F9"/>
<path d="M78.1107 40.6818C77.4438 40.6818 76.9033 40.1414 76.9033 39.4745V37.0596C76.9033 36.3928 77.4438 35.8523 78.1107 35.8523C78.7775 35.8523 79.318 36.3928 79.318 37.0596V39.4745C79.318 40.1412 78.7775 40.6818 78.1107 40.6818Z" fill="#D5E8FE"/>
<path d="M84.1478 40.6818C83.4809 40.6818 82.9404 40.1414 82.9404 39.4745V37.0596C82.9404 36.3928 83.4809 35.8523 84.1478 35.8523C84.8147 35.8523 85.3551 36.3928 85.3551 37.0596V39.4745C85.3553 40.1412 84.8148 40.6818 84.1478 40.6818Z" fill="#D5E8FE"/>
<path d="M90.1849 40.6818C89.518 40.6818 88.9775 40.1414 88.9775 39.4745V37.0596C88.9775 36.3928 89.518 35.8523 90.1849 35.8523C90.8518 35.8523 91.3922 36.3928 91.3922 37.0596V39.4745C91.3922 40.1412 90.8518 40.6818 90.1849 40.6818Z" fill="#D5E8FE"/>
<path d="M78.1107 49.1336C77.4438 49.1336 76.9033 48.5931 76.9033 47.9263V45.5114C76.9033 44.8445 77.4438 44.3041 78.1107 44.3041C78.7775 44.3041 79.318 44.8445 79.318 45.5114V47.9263C79.318 48.593 78.7775 49.1336 78.1107 49.1336Z" fill="#D5E8FE"/>
<path d="M84.1478 49.1336C83.4809 49.1336 82.9404 48.5931 82.9404 47.9263V45.5114C82.9404 44.8445 83.4809 44.3041 84.1478 44.3041C84.8147 44.3041 85.3551 44.8445 85.3551 45.5114V47.9263C85.3553 48.593 84.8148 49.1336 84.1478 49.1336Z" fill="#D5E8FE"/>
<path d="M90.1849 49.1336C89.518 49.1336 88.9775 48.5931 88.9775 47.9263V45.5114C88.9775 44.8445 89.518 44.3041 90.1849 44.3041C90.8518 44.3041 91.3922 44.8445 91.3922 45.5114V47.9263C91.3922 48.593 90.8518 49.1336 90.1849 49.1336Z" fill="#D5E8FE"/>
<path d="M84.1478 57.5851C83.4809 57.5851 82.9404 57.0447 82.9404 56.3778V53.963C82.9404 53.2961 83.4809 52.7556 84.1478 52.7556C84.8147 52.7556 85.3551 53.2961 85.3551 53.963V56.3778C85.3553 57.0447 84.8148 57.5851 84.1478 57.5851Z" fill="#D5E8FE"/>
<path d="M90.1849 57.5851C89.518 57.5851 88.9775 57.0447 88.9775 56.3778V53.963C88.9775 53.2961 89.518 52.7556 90.1849 52.7556C90.8518 52.7556 91.3922 53.2961 91.3922 53.963V56.3778C91.3922 57.0447 90.8518 57.5851 90.1849 57.5851Z" fill="#D5E8FE"/>
<path d="M84.1478 66.0369C83.4809 66.0369 82.9404 65.4965 82.9404 64.8296V62.4147C82.9404 61.7479 83.4809 61.2074 84.1478 61.2074C84.8147 61.2074 85.3551 61.7479 85.3551 62.4147V64.8296C85.3553 65.4965 84.8148 66.0369 84.1478 66.0369Z" fill="#D5E8FE"/>
<path d="M90.1849 66.0369C89.518 66.0369 88.9775 65.4965 88.9775 64.8296V62.4147C88.9775 61.7479 89.518 61.2074 90.1849 61.2074C90.8518 61.2074 91.3922 61.7479 91.3922 62.4147V64.8296C91.3922 65.4965 90.8518 66.0369 90.1849 66.0369Z" fill="#D5E8FE"/>
<path d="M84.1478 74.4886C83.4809 74.4886 82.9404 73.9481 82.9404 73.2812V70.8664C82.9404 70.1995 83.4809 69.6591 84.1478 69.6591C84.8147 69.6591 85.3551 70.1995 85.3551 70.8664V73.2812C85.3553 73.9481 84.8148 74.4886 84.1478 74.4886Z" fill="#D5E8FE"/>
<path d="M90.1849 74.4886C89.518 74.4886 88.9775 73.9481 88.9775 73.2812V70.8664C88.9775 70.1995 89.518 69.6591 90.1849 69.6591C90.8518 69.6591 91.3922 70.1995 91.3922 70.8664V73.2812C91.3922 73.9481 90.8518 74.4886 90.1849 74.4886Z" fill="#D5E8FE"/>
<path d="M84.1478 82.9402C83.4809 82.9402 82.9404 82.3998 82.9404 81.7329V79.3181C82.9404 78.6512 83.4809 78.1107 84.1478 78.1107C84.8147 78.1107 85.3551 78.6512 85.3551 79.3181V81.7329C85.3553 82.3998 84.8148 82.9402 84.1478 82.9402Z" fill="#D5E8FE"/>
<path d="M90.1849 82.9402C89.518 82.9402 88.9775 82.3998 88.9775 81.7329V79.3181C88.9775 78.6512 89.518 78.1107 90.1849 78.1107C90.8518 78.1107 91.3922 78.6512 91.3922 79.3181V81.7329C91.3922 82.3998 90.8518 82.9402 90.1849 82.9402Z" fill="#D5E8FE"/>
<path d="M84.1478 91.392C83.4809 91.392 82.9404 90.8516 82.9404 90.1847V87.7698C82.9404 87.103 83.4809 86.5625 84.1478 86.5625C84.8147 86.5625 85.3551 87.103 85.3551 87.7698V90.1847C85.3553 90.8516 84.8148 91.392 84.1478 91.392Z" fill="#D5E8FE"/>
<path d="M90.1849 91.392C89.518 91.392 88.9775 90.8516 88.9775 90.1847V87.7698C88.9775 87.103 89.518 86.5625 90.1849 86.5625C90.8518 86.5625 91.3922 87.103 91.3922 87.7698V90.1847C91.3922 90.8516 90.8518 91.392 90.1849 91.392Z" fill="#D5E8FE"/>
</g>
<defs>
<clipPath id="clip0_7474_144258">
<rect width="80" height="80" fill="white" transform="translate(20 20)"/>
</clipPath>
</defs>
</svg>
