<svg width="240" height="240" viewBox="0 0 240 240" fill="none" xmlns="http://www.w3.org/2000/svg">
<g clip-path="url(#clip0_3236_4275)">
<path d="M167.045 201.099C201.928 166.216 201.928 109.66 167.046 74.7777C132.163 39.8951 75.6072 39.8953 40.7245 74.778C5.84174 109.661 5.8416 166.217 40.7241 201.099C75.6066 235.982 132.163 235.982 167.045 201.099Z" fill="#26A6FE"/>
<path d="M190.036 114.157H168.164C170.908 121.566 172.409 129.578 172.409 137.942C172.409 175.773 141.742 206.441 103.911 206.441C95.182 206.441 86.8364 204.805 79.1592 201.828V223.792C87.0201 226.055 95.3212 227.278 103.911 227.278C153.25 227.278 193.246 187.281 193.246 137.941C193.246 129.704 192.123 121.731 190.036 114.157Z" fill="#0593FC"/>
<path d="M152.314 186.367C179.06 159.621 179.06 116.256 152.314 89.5095C125.567 62.7631 82.2025 62.7631 55.4561 89.5095C28.7096 116.256 28.7096 159.621 55.4561 186.367C82.2025 213.113 125.567 213.113 152.314 186.367Z" fill="white"/>
<path d="M145.294 83.3577C154.62 95.0605 160.195 109.883 160.195 126.01C160.195 163.841 129.527 194.509 91.6966 194.509C76.1467 194.509 61.8095 189.325 50.3125 180.594C62.8628 196.344 82.2058 206.441 103.91 206.441C141.741 206.441 172.409 175.773 172.409 137.942C172.409 115.661 161.769 95.8672 145.294 83.3577Z" fill="#F5F8F9"/>
<path d="M227.928 114.157H139.549C132.881 114.157 127.476 108.752 127.476 102.084V13.7052C127.476 7.03772 132.881 1.63257 139.549 1.63257H227.928C234.595 1.63257 240 7.03772 240 13.7052V102.084C240 108.752 234.595 114.157 227.928 114.157Z" fill="#FFE177"/>
<path d="M227.928 1.63257H225.513V94.8407C225.513 97.5074 223.351 99.6698 220.684 99.6698H127.477V102.084C127.477 108.752 132.882 114.157 139.549 114.157H227.928C234.596 114.157 240.001 108.752 240.001 102.084V13.7052C240 7.03772 234.595 1.63257 227.928 1.63257Z" fill="#FFD15B"/>
<path d="M79.1585 159.692V146.47C79.1585 139.802 73.7534 134.397 67.0859 134.397H12.0729C5.4054 134.397 0.000244141 139.802 0.000244141 146.47V159.692H79.1585Z" fill="#FE646F"/>
<path d="M0.000244141 159.208V226.294C0.000244141 232.962 5.4054 238.367 12.0729 238.367H67.0863C73.7538 238.367 79.159 232.962 79.159 226.294V159.208H0.000244141Z" fill="#E8EDF2"/>
<path d="M67.0718 159.208V221.451C67.0718 224.118 64.9099 226.28 62.2427 226.28H0.000244141V226.294C0.000244141 232.962 5.4054 238.367 12.0729 238.367H67.0863C73.7538 238.367 79.159 232.962 79.159 226.294V159.208H67.0718Z" fill="#D9E7EC"/>
<path d="M67.0863 134.397H67.0718V145.836C67.0718 148.503 64.9099 150.665 62.2427 150.665H0.000244141V159.691H79.1585V146.469C79.1585 139.802 73.7538 134.397 67.0863 134.397Z" fill="#FD4755"/>
<path d="M126.946 154.759C126.35 154.759 125.745 154.608 125.192 154.288L102.152 140.986C101.065 140.358 100.395 139.198 100.395 137.942V104.269C100.395 102.327 101.968 100.753 103.91 100.753C105.852 100.753 107.426 102.327 107.426 104.269V135.912L128.708 148.198C130.389 149.169 130.965 151.319 129.994 153.001C129.344 154.129 128.161 154.759 126.946 154.759Z" fill="#8D9CA8"/>
<path d="M103.91 90.0047C101.968 90.0047 100.395 88.4306 100.395 86.4891V84.7739C100.395 82.8324 101.968 81.2583 103.91 81.2583C105.852 81.2583 107.426 82.8324 107.426 84.7739V86.4891C107.426 88.4306 105.852 90.0047 103.91 90.0047Z" fill="#C5D3DD"/>
<path d="M103.91 194.625C101.968 194.625 100.395 193.051 100.395 191.109V189.394C100.395 187.453 101.968 185.879 103.91 185.879C105.852 185.879 107.426 187.453 107.426 189.394V191.109C107.426 193.051 105.852 194.625 103.91 194.625Z" fill="#C5D3DD"/>
<path d="M157.078 141.457H155.363C153.421 141.457 151.847 139.883 151.847 137.941C151.847 136 153.421 134.426 155.363 134.426H157.078C159.02 134.426 160.594 136 160.594 137.941C160.594 139.883 159.02 141.457 157.078 141.457Z" fill="#C5D3DD"/>
<path d="M78.1868 96.8985C76.9718 96.8985 75.7901 96.2676 75.139 95.1398L74.2816 93.6548C73.3109 91.9734 73.887 89.8232 75.5684 88.8525C77.2502 87.8821 79.4004 88.4578 80.3707 90.1396L81.228 91.6246C82.1988 93.3061 81.6227 95.4562 79.9413 96.427C79.3873 96.7467 78.783 96.8985 78.1868 96.8985Z" fill="#C5D3DD"/>
<path d="M130.498 187.502C129.283 187.502 128.101 186.872 127.45 185.744L126.592 184.259C125.621 182.578 126.197 180.428 127.878 179.457C129.559 178.485 131.71 179.061 132.681 180.743L133.538 182.228C134.51 183.909 133.934 186.059 132.253 187.031C131.699 187.35 131.094 187.502 130.498 187.502Z" fill="#C5D3DD"/>
<path d="M59.3468 115.732C58.7506 115.732 58.1459 115.58 57.5918 115.26L56.1068 114.402C54.4254 113.431 53.8498 111.281 54.8206 109.599C55.7914 107.918 57.9406 107.342 59.6234 108.313L61.1084 109.171C62.7898 110.142 63.3654 112.292 62.3946 113.974C61.7435 115.101 60.5618 115.732 59.3468 115.732Z" fill="#C5D3DD"/>
<path d="M149.951 168.042C149.355 168.042 148.75 167.89 148.197 167.57L146.711 166.712C145.03 165.742 144.454 163.592 145.424 161.91C146.395 160.229 148.544 159.652 150.227 160.623L151.712 161.481C153.394 162.452 153.97 164.602 152.999 166.284C152.348 167.411 151.166 168.042 149.951 168.042Z" fill="#C5D3DD"/>
<path d="M155.221 38.8546C154.321 38.8546 153.421 38.5114 152.735 37.8247L145.216 30.3064C143.843 28.9335 143.843 26.7074 145.216 25.3349C146.59 23.9619 148.815 23.9619 150.188 25.3349L155.22 30.3674L164.401 21.1874C165.774 19.8139 168 19.8144 169.373 21.1874C170.746 22.5603 170.746 24.7864 169.372 26.1589L157.706 37.8252C157.02 38.511 156.12 38.8546 155.221 38.8546Z" fill="#0AB69F"/>
<path d="M219.774 33.9285H180.368C178.426 33.9285 176.853 32.3544 176.853 30.4128C176.853 28.4713 178.426 26.8972 180.368 26.8972H219.774C221.716 26.8972 223.29 28.4713 223.29 30.4128C223.29 32.3544 221.716 33.9285 219.774 33.9285Z" fill="#FFC344"/>
<path d="M155.221 67.2572C154.321 67.2572 153.421 66.9141 152.735 66.2274L145.216 58.7091C143.843 57.3361 143.843 55.11 145.216 53.7375C146.59 52.3645 148.815 52.3645 150.188 53.7375L155.22 58.77L164.401 49.5895C165.774 48.2166 168 48.2166 169.373 49.5895C170.746 50.9625 170.746 53.1886 169.373 54.5611L157.706 66.2274C157.02 66.9141 156.12 67.2572 155.221 67.2572Z" fill="#0AB69F"/>
<path d="M219.774 62.3315H180.368C178.426 62.3315 176.853 60.7575 176.853 58.8159C176.853 56.8744 178.426 55.3003 180.368 55.3003H219.774C221.716 55.3003 223.29 56.8744 223.29 58.8159C223.29 60.7575 221.716 62.3315 219.774 62.3315Z" fill="#FFC344"/>
<path d="M155.221 96.0961C154.321 96.0961 153.421 95.7529 152.735 95.0662L145.216 87.5479C143.843 86.175 143.843 83.9489 145.216 82.5764C146.59 81.2034 148.815 81.2034 150.188 82.5764L155.22 87.6089L164.401 78.4284C165.774 77.0554 168 77.0554 169.373 78.4284C170.746 79.8014 170.746 82.0275 169.373 83.4L157.706 95.0662C157.02 95.7525 156.12 96.0961 155.221 96.0961Z" fill="#0AB69F"/>
<path d="M219.774 91.1699H180.368C178.426 91.1699 176.853 89.5959 176.853 87.6543C176.853 85.7127 178.426 84.1387 180.368 84.1387H219.774C221.716 84.1387 223.29 85.7127 223.29 87.6543C223.29 89.5959 221.716 91.1699 219.774 91.1699Z" fill="#FFC344"/>
<path d="M60.0064 175.648H51.6177C49.6756 175.648 48.1021 177.222 48.1021 179.164C48.1021 181.106 49.6756 182.68 51.6177 182.68H56.4908V218.412C56.4908 220.354 58.0644 221.928 60.0064 221.928C61.9485 221.928 63.5221 220.354 63.5221 218.412V179.164C63.5221 177.222 61.948 175.648 60.0064 175.648Z" fill="#8D9CA8"/>
<path d="M42.7537 188.745C42.7537 181.269 36.6712 175.187 29.1956 175.187C22.731 175.187 17.1356 179.785 15.8915 186.121C15.5174 188.026 16.7587 189.874 18.6637 190.249C20.5696 190.622 22.417 189.382 22.791 187.476C23.3891 184.43 26.0826 182.218 29.1956 182.218C32.7946 182.218 35.7224 185.147 35.7224 188.745C35.7224 192.344 32.7946 195.273 29.1956 195.273C27.2535 195.273 25.6799 196.847 25.6799 198.788C25.6799 200.73 27.2535 202.304 29.1956 202.304C32.7946 202.304 35.7224 205.232 35.7224 208.831C35.7224 212.43 32.7946 215.358 29.1956 215.358C25.957 215.358 23.1777 212.946 22.7315 209.744C22.6893 209.445 22.6682 209.138 22.6682 208.831C22.6682 206.889 21.0946 205.315 19.1526 205.315C17.2106 205.315 15.637 206.889 15.637 208.831C15.637 209.463 15.681 210.099 15.7677 210.717C16.6954 217.371 22.4685 222.389 29.1956 222.389C36.6712 222.389 42.7537 216.306 42.7537 208.83C42.7537 204.853 41.0315 201.27 38.2945 198.788C41.0315 196.305 42.7537 192.723 42.7537 188.745Z" fill="#8D9CA8"/>
</g>
<defs>
<clipPath id="clip0_3236_4275">
<rect width="240" height="240" fill="white"/>
</clipPath>
</defs>
</svg>
